<!--?xml version="1.0" encoding="utf-8"?-->
<svg version="1.1" x="0px" y="0px" id="iconz71218326538704454342" viewBox="0 0 512 512" xmlns="http://www.w3.org/2000/svg" style="enable-background:new 0 0 512 512;" xml:space="preserve"><style type="text/css">
.baseF{fill:#FFE1E1}
.baseB{fill:#0B2A65}
.eyeF{fill:#FFFFFF}
.eyeB{fill:#0B2A65}
.eyeT{fill:#679ECE}
.hairF{fill:#FFFFFF}
.hairB{fill:#0B2A65}
.hairU{fill:#FFD516}
.hairT{fill:#679ECE}
.noseF{fill:#FFE1E1}
.noseB{fill:#0B2A65}
.noseU{fill:#FFD516}
.mayugeB{fill:#0B2A65}
.mayugeU{fill:#FFD516}
.mayugeT{fill:#679ECE}
.mayugeF{fill:#FFFFFF}
.mouthF{fill:#FFFFFF}
.mouthB{fill:#0B2A65}
.mouthT{fill:#679ECE}
.mouthU{fill:#FFD516}
.hatF{fill:#FFFFFF}
.hatB{fill:#0B2A65}
.hatU{fill:#FFD516}
.hatT{fill:#679ECE}
.higeU{fill:#FFD516}
.higeB{fill:#0B2A65}
.higeF{fill:#FFFFFF}
.bodyF{fill:#FFFFFF}
.bodyB{fill:#0B2A65}
.bodyU{fill:#FFD516}
.bodyT{fill:#679ECE}
.bodyS{fill:#F2B175}
.bodyH{fill:#FFE1E1}
.glassF{fill:#FFE1E1}
.glassB{fill:#0B2A65}
.glassT{fill:#679ECE}
.glassU{fill:#FFD516}
.kirakiraF{fill:#FFFFFF}
.kirakiraB{fill:#0B2A65}
.kirakiraU{fill:#FFD516}
.kirakiraT{fill:#679ECE}
.kirakiraH{fill:#FFFFFF}
.backF{fill:#FFFFFF}
.backB{fill:#0B2A65}
.backU{fill:#FFD516}
.backS{fill:#F2B175}
.backA{fill:#FFE38B}
.backG{fill:#EEEEEF}
.backC{fill:#19DB9F}
.backD{fill:#DBBCA1}
</style>
<g class="icosvg">
<g>
	<g>
		<rect x="-134" y="-134" class="backB" width="780" height="780"></rect>
	</g>
	<polygon class="backU" points="646,-134 646,402.34 421.29,629.38 -134,184.79 -134,-134 	"></polygon>
	<polygon class="backS" points="646,-134 646,27.81 421.29,254.86 -64.39,-134 	"></polygon>
</g>


<g>
	<path class="bodyT" d="M462.904,571.449c0,31.825,0,73.968,0,73.968H49.096c0,0,0-42.143,0-73.968   c-4.413-117.094,58.525-168.829,129.766-200.784c6.434-3.456,10.896-5.808,16.488-7.439c10.177-2.952,24.145-3.529,60.649-4.032   c36.504,0.504,50.47,1.08,60.647,4.032c5.616,1.631,10.057,3.983,16.488,7.439C404.4,402.526,467.406,454.695,462.904,571.449z"></path>
	<path class="bodyH" d="M321.088,384.826c0.523,17.686-5.062,35.095-16.153,48.96c0,0-37.008,46.488-37.008,46.488   c-6.096,7.679-17.761,7.679-23.857,0l-37.008-46.488c-15.358-19.25-21.169-47.588-11.712-70.56   c8.374-5.179,112.918-5.179,121.296,0C319.504,369.849,321.088,377.145,321.088,384.826z"></path>
	<g>
		<path class="bodyB" d="M468.18,571.449c-0.002-37.184-3.755-66.336-12.524-91.031c-17.812-59.278-92.446-104.283-120.29-114.548    c-5.417-3.044-10.028-5.245-14.736-6.854c-0.031-0.068-0.057-0.137-0.088-0.204c-0.956-0.259-1.886-0.486-2.818-0.715    c-3.707-1.065-7.594-1.802-12.079-2.323c-9.669-1.327-89.612-1.328-99.282-0.002c-4.477,0.519-8.359,1.256-12.061,2.317    c-0.942,0.232-1.882,0.462-2.847,0.724c-0.032,0.068-0.059,0.138-0.091,0.206c-4.71,1.611-9.322,3.813-14.738,6.854    c-28.605,10.634-102.521,55.545-120.282,114.547c-8.77,24.694-12.522,53.846-12.524,91.03c0,31.825,0,73.968,0,73.968    c0.108,6.87,10.424,6.993,10.554,0h-0.001c1.976-70.127-13.671-162.688,51.344-220.808c25.67-23.82,48.619-37.394,75.37-49.149    c2.122-1.127,4.021-2.156,5.862-3.096c-2.827,13.64-1.365,28.5,3.088,41.44c2.931,8.354,7.249,16.247,12.857,23.297l37.005,46.485    l0.004,0.005l-0.001-0.001c8.229,10.356,23.961,10.356,32.192-0.001l37.007-46.487c11.836-14.805,17.844-33.386,17.312-52.277    c0.012-4.302-0.465-8.447-1.324-12.46c1.804,0.905,3.71,1.921,5.822,3.095c27.574,10.133,98.309,53.286,114.799,108.492    c8.207,23.082,11.919,51.001,11.917,87.497c0,31.825,0,73.968,0,73.968c0.056,6.817,10.445,7.025,10.554,0    C468.18,645.416,468.18,603.273,468.18,571.449z M312.678,367.804c1.959,5.307,3.084,11.009,3.085,17.021    c0.516,16.482-4.649,32.718-14.995,45.644c0,0-36.583,45.955-37.011,46.493c-4.035,5.108-11.854,4.958-15.722-0.26l-36.806-46.234    c-13.603-17.077-19.177-41.91-11.879-62.671c17.279-3.6,31.625-2.503,56.65-3.277c10.317,0.319,18.814,0.322,26.466,0.466    c5.156,0.154,9.601,0.336,13.405,0.572c0.786,0.047,1.525,0.098,2.264,0.15C302.958,366.124,307.7,366.764,312.678,367.804z"></path>
		<polygon class="bodyB" points="272.098,483.585 272.095,483.589 272.093,483.59   "></polygon>
	</g>
</g>

<g>
	<path class="baseF" d="M370.823,212.278h-1.083c-4.502-69.283-37.917-124.793-113.739-124.793
		c-75.823,0-109.238,55.51-113.74,124.793h-1.083c-14.838-8.774-36.38,8.077-32.988,28.423c7.12,42.713,9.94,53.304,22.629,59.714
		c6.476,3.274,12.413,3.39,12.413,3.39h1.277c4.228,26.863,10.38,52.753,21.211,67.835c16.544,23.046,61.366,38.076,90.281,38.076
		c28.914,0,73.736-15.03,90.281-38.076c10.83-15.082,16.982-40.972,21.211-67.835h1.277c0,0,5.937-0.115,12.412-3.39
		c12.691-6.41,15.509-17.001,22.629-59.714C407.203,220.355,385.661,203.504,370.823,212.278z"></path>
	<path class="baseB" d="M374.474,204.316c-3.994-43.045-19.733-85.533-58.115-108.137c-66.247-35.822-152.387-7.523-171.615,69.611
		c-1.194,3.97-5.515,22.021-7.546,38.468c-19.028-4.216-38.167,16.827-34.211,36.392c5.76,23.926,3.189,50.922,25.449,63.556
		c3.829,2.019,8.448,3.229,12.032,3.715c1.333,9.477,2.762,17.72,4.363,25.014c4.646,19.023,8.911,35.243,23.705,48.301
		c19.349,16.445,47.243,31.031,73.402,33.264c36.571,4.404,74.152-9.497,101.529-33.265c17.988-16.677,20.904-35.453,26.053-60.356
		c0.7-4.045,1.368-8.348,2.015-12.943c5.381-0.743,12.751-3.321,17.155-6.886c16.243-14.077,16.907-43.205,20.757-65.556
		C409.894,217.524,391.839,200.225,374.474,204.316z M393.888,265.163c-2.372,14.084-6.952,29.018-20.938,31.94
		c0.886-7.262,1.739-15.176,2.58-23.858c0.693-6.754-9.897-7.878-10.504-1.017l0,0c-4.905,40.098-4.773,61.057-19.796,91.022
		c-25.69,32.844-75.829,48.507-116.628,38.371c-22.22-6.925-48.458-19.423-61.828-38.371c-7.695-13.998-10.461-25.53-13.891-44.172
		c-2.162-12.484-4.056-27.757-5.905-46.85c-0.281-2.901-2.86-5.025-5.761-4.744c-2.901,0.281-5.024,2.86-4.743,5.761
		c0.84,8.669,1.691,16.562,2.575,23.816c-14.068-3.003-18.414-17.342-21.001-32.226c-0.818-9.186-7.698-26.161-3.223-37.587
		c3.397-8.052,12.799-15.191,21.414-12.335c-0.51,10.453,0.698,18.396,5.485,18.443c2.916-0.001,5.279-2.363,5.279-5.278h0
		c-2.179-98.241,61.423-164.004,159.024-125.49c45.561,23.119,58.867,76.261,58.975,125.49c-0.167,6.806,10.702,6.877,10.554,0
		c-0.003-4.287-0.114-8.606-0.325-12.935c11.55-4.274,23.955,8.635,23.661,20.35C397.841,246.224,395.214,257.789,393.888,265.163z"></path>
</g>


<g>
	<path class="higeB" d="M300.434,379.043c-1.656-5.756-5.521-1.976-9.629,2.993c-2.868,3.469-5.919-2.212-9.293-5.768
		c-1.807-1.908-4.816-1.505-6.449,0.551c-4.782,6.016-15.05,10.816-19.062,4.664c-4.012,6.152-14.28,1.352-19.062-4.664
		c-1.634-2.055-4.642-2.459-6.449-0.551c-3.374,3.555-6.425,9.237-9.293,5.768c-4.108-4.969-7.973-8.749-9.629-2.993
		c-1.656,5.754,0,19.003,0,27.839c0,8.834,6.56,13.252,9.629,8.28c3.07-4.969,8.671,11.044,11.668,10.491
		c2.996-0.551,4.653-2.761,7.414-4.969c2.761-2.208,3.84,9.938,15.723,9.938c11.883,0,12.962-12.145,15.723-9.938
		c2.761,2.208,4.417,4.418,7.414,4.969c2.997,0.553,8.598-15.459,11.668-10.491c3.069,4.971,9.629,0.553,9.629-8.28
		C300.434,398.046,302.09,384.797,300.434,379.043z"></path>
	<path class="higeB" d="M292.419,338.915c-2.858-3.48-6.564-9.839-10.138-7.566c-3.574,2.276-8.447,2.925-12.346-1.298
		c-3.899-4.223-7.148-1.624-13.934,1.298c-6.787-2.923-10.035-5.522-13.934-1.298s-8.772,3.574-12.346,1.298
		c-3.574-2.273-7.281,4.085-10.138,7.566c-2.858,3.48-7.081,5.43-4.157,7.706c2.924,2.273,17.22,1.948,25.342-4.549
		c6.82,2.597,15.227,2.925,15.233,2.925l0,0H256h0.001l0,0c0.006,0,8.413-0.328,15.233-2.925c8.123,6.497,22.418,6.823,25.342,4.549
		C299.501,344.346,295.277,342.396,292.419,338.915z"></path>
</g>


<g>
	<path class="hairB" d="M274.826,63.635c0,0-13.086-17.011-55.398-10.031s-116.03,77.644-101.476,160.959
		c1.284,7.35,10.977-5.123,12.054,2.18c1.574,10.678,2.41,36.511,5.894,47.023c7.645,23.065,20.686,28.097,30.311,31.057
		c0,0-3.49-32.278-3.49-57.141c0-24.865,12.214-57.605,23.555-61.737c0,0,6.979,32.074,22.683,38.618
		c2.181-4.364,17.202-32.28,17.202-32.28s36.015,34.896,38.196,48.855c17.902-8.562,19.826-34.078,19.414-39.492
		c1.771,4.995,12.591,26.262,27.632,31.641c4.862-3.49,7.043-29.662,7.043-29.662s13.2,26.337,35.719,30.415
		c-0.494,28.957-4.042,67.42-12.019,75.93c30.911-6.457,40.401-36.483,40.401-47.829c0-11.344,0-28.036,0-28.036l9.674-7.017
		c0,0,0-16.118,0-48.349S361.322,63.635,274.826,63.635z"></path>
</g>


<g>
	<path class="mouthB" d="M281.371,345.627c-3.338,3.246-16.347,5.354-26.05,5.354c-9.703,0-22.712-2.108-26.05-5.354
		c-2.753-2.677-4.397,0.956-1.912,4.206c2.486,3.25,13.575,8.073,27.962,8.073c14.387,0,25.476-4.823,27.962-8.073
		C285.768,346.583,284.124,342.95,281.371,345.627z"></path>
</g>


<g>
	<path class="noseF" d="M264.577,291.232c-5.576-1.788-11.578-1.788-17.156,0c-23.034,7.385-31.111,22.901-26.33,32.78
		c3.998,8.264,14.606,11.459,24.933,7.043c6.328-2.705,13.624-2.705,19.952,0c10.327,4.416,20.934,1.221,24.933-7.043
		C295.691,314.133,287.614,298.617,264.577,291.232z"></path>
	<path class="noseB" d="M264.577,291.232l1.064-3.316c-3.136-1.008-6.39-1.509-9.642-1.509c-3.253,0-6.51,0.499-9.647,1.509
		c-9.859,3.164-17.289,7.795-22.335,13.09c-5.033,5.288-7.721,11.29-7.731,17.091c-0.002,2.59,0.554,5.126,1.669,7.43
		c3.418,7.087,10.787,11.03,18.714,10.997c3.504,0,7.15-0.743,10.72-2.266c2.722-1.165,5.664-1.751,8.61-1.751
		c2.945,0,5.886,0.586,8.607,1.748c3.572,1.526,7.219,2.264,10.72,2.264c7.929,0.033,15.292-3.914,18.715-10.987
		c1.116-2.306,1.669-4.845,1.668-7.434c-0.009-5.801-2.698-11.805-7.73-17.093c-5.046-5.295-12.476-9.926-22.341-13.088
		L264.577,291.232l-1.063,3.314c8.95,2.864,15.346,6.975,19.421,11.259c4.089,4.294,5.818,8.709,5.809,12.291
		c-0.001,1.617-0.334,3.077-0.971,4.399c-2.134,4.378-6.694,7.027-12.447,7.059c-2.523,0-5.242-0.532-7.984-1.704
		c-3.609-1.545-7.479-2.309-11.344-2.309c-3.866,0-7.736,0.764-11.346,2.311c-2.746,1.17-5.466,1.706-7.984,1.706
		c-5.757-0.033-10.311-2.677-12.444-7.064c-0.64-1.329-0.971-2.787-0.974-4.399c-0.009-3.579,1.72-7.995,5.809-12.286
		c4.076-4.287,10.472-8.398,19.423-11.264c2.442-0.785,4.977-1.177,7.516-1.177c2.534,0,5.071,0.394,7.513,1.177L264.577,291.232z"></path>
	<path class="noseB" d="M273.198,312.802c0.431,2.878-0.797,5.447-2.745,5.74c-1.948,0.293-3.877-1.802-4.31-4.678
		c-0.434-2.876,0.795-5.445,2.742-5.74C270.833,307.833,272.764,309.926,273.198,312.802z"></path>
	<path class="noseB" d="M238.803,312.802c-0.431,2.878,0.795,5.447,2.742,5.74c1.95,0.293,3.879-1.802,4.312-4.678
		c0.434-2.876-0.795-5.445-2.742-5.74C241.168,307.833,239.237,309.926,238.803,312.802z"></path>
	<path class="noseB" d="M293.736,312.523c-4.083-3.373-6.192-5.728-5.569-6.675c0.581-0.902,3.813,0.045,8.128,3.605
		c1.43,1.193,2.817,2.43,4.167,3.712c4.038,3.87,5.353,6.97,4.526,7.655c-0.87,0.727-3.452-1.095-7.277-4.758
		C296.424,314.838,295.098,313.66,293.736,312.523z"></path>
	<path class="noseB" d="M216.42,310.784c4.312-4.027,7.256-5.667,8.048-4.936c0.83,0.771-1.036,3.86-5.302,7.842l-4.221,4.043
		c-4.23,4.052-6.682,5.911-7.601,5.402c-1.031-0.584,0.53-4.195,4.805-8.257L216.42,310.784z"></path>
</g>


<g>
	<g>
		<path class="mayugeB" d="M338.287,239.437l-18.105-3.496l-47.692,12.338v-22.425l49.72-10.212c4.151-0.853,8.379,1.071,10.462,4.761
			l8.491,15.037C342.301,237.453,340.558,239.875,338.287,239.437z"></path>
		<path class="mayugeB" d="M174.667,239.437l18.105-3.496l47.692,12.338v-22.425l-49.72-10.212c-4.151-0.853-8.379,1.071-10.462,4.761
			l-8.491,15.037C170.653,237.453,172.396,239.875,174.667,239.437z"></path>
	</g>
</g>


<g>
	<g>
		<g>
			<path class="glassB" d="M312.799,300.626c-5.569,0-11.184-0.419-16.69-1.245l-6.436-0.966c-8.787-1.318-16.474-6.814-20.564-14.702
				l-5.808-11.203c-0.002-0.002-0.258-0.465-1.866-1.127c-1.727-0.712-3.555-1.073-5.435-1.073c-1.88,0-3.708,0.361-5.435,1.073
				c-1.608,0.663-1.861,1.123-1.863,1.127l-5.812,11.203c-4.087,7.887-11.773,13.383-20.562,14.702l-6.436,0.966
				c-5.505,0.826-11.123,1.245-16.692,1.245c-7.148,0-14.332-0.688-21.354-2.044l-5.398-1.044
				c-9.22-1.782-16.978-8.362-20.241-17.17l-1.066-2.882c-0.162-0.435-0.422-0.84-0.752-1.172l-1.113-1.113
				c-1.158-1.158-1.795-2.698-1.795-4.338v-12.196c0-2.315,1.28-4.408,3.34-5.463c0.328-0.167,0.605-0.358,0.83-0.57l5.283-4.99
				c0.239-0.225,0.546-0.362,0.872-0.388l20.377-1.657c4.676-0.38,9.424-0.572,14.114-0.572c8.145,0,16.366,0.579,24.431,1.723
				l21.79,3.089l7.462,1.89c3.272,0.833,6.645,1.256,10.022,1.256c3.377,0,6.75-0.422,10.022-1.256l7.308-1.86l21.945-3.119
				c8.067-1.143,16.289-1.723,24.434-1.723c4.69,0,9.436,0.193,14.109,0.572l20.377,1.657c0.326,0.026,0.633,0.163,0.872,0.388
				l5.285,4.991c0.223,0.212,0.502,0.403,0.827,0.568c2.062,1.056,3.342,3.149,3.342,5.464v12.196c0,1.639-0.638,3.18-1.798,4.338
				l-1.111,1.114c-0.335,0.333-0.588,0.727-0.752,1.171l-1.066,2.88c-3.262,8.81-11.02,15.389-20.241,17.171l-5.4,1.044
				C327.131,299.938,319.947,300.626,312.799,300.626L312.799,300.626z"></path>
			<path class="glassT" d="M318.206,252.06c-1.847,0-3.541,0.025-4.985,0.071c-9.989,0.322-25.277,2.23-32.077,4.004
				c-5.808,1.515-6.253,3.543-6.867,6.349l-0.152,0.681c-0.9,3.904-0.272,8.608,2.105,15.728c1.868,5.605,5.452,9.284,10.952,11.247
				c4.427,1.581,15.166,3.342,23.501,3.342c7.95,0,17.203-0.212,26.405-2.751c7.978-2.201,8.955-5.485,9.816-8.382
				c0.952-3.178,2.834-13.721,2.834-17.951c0-4.209-0.298-8.136-3.879-9.925C342.726,252.905,329.273,252.06,318.206,252.06z"></path>
			<path class="glassT" d="M193.795,252.06c-11.067,0-24.52,0.846-27.654,2.412c-3.579,1.789-3.877,5.716-3.877,9.925
				c0,4.242,1.882,14.78,2.742,17.651c0.952,3.199,1.929,6.482,9.905,8.682c9.202,2.539,18.455,2.751,26.407,2.751
				c8.332,0,19.071-1.761,23.498-3.342c5.505-1.966,9.089-5.645,10.955-11.247c2.374-7.126,3.005-11.829,2.102-15.729l-0.15-0.674
				c-0.612-2.809-1.055-4.839-6.867-6.354c-6.795-1.772-22.083-3.681-32.077-4.004C197.336,252.085,195.642,252.06,193.795,252.06z"></path>
		</g>
	</g>
	<path class="glassF" d="M173.503,276.079c0,0-4.697-9.568,0.143-15.049c2.436-2.759,7.287-4.482,16.369-3.429
		C181.758,265.858,173.503,276.079,173.503,276.079z"></path>
	<path class="glassF" d="M288.182,276.079c0,0-4.697-9.568,0.143-15.049c2.436-2.759,7.287-4.482,16.369-3.429
		C296.438,265.858,288.182,276.079,288.182,276.079z"></path>
</g>


<g>
	<path class="hatB" d="M274.404,25.328c0,8.239-8.238,14.919-18.401,14.919c-10.165,0-18.403-6.68-18.403-14.919
		c0-8.241,8.238-14.92,18.403-14.92C266.165,10.407,274.404,17.087,274.404,25.328z"></path>
	<path class="hatB" d="M246.907,127.106c4.739,0,7.929,0.103,9.094,0.148c1.165-0.045,4.352-0.148,9.094-0.148
		c24.434,0,83.114,2.646,126.054,25.767c0.141-13.801-0.033-34.23-0.216-47.824c-0.178-13.095-5.229-25.699-14.295-35.541
		c-20.836-22.61-63.731-46.139-120.635-46.139c-56.906,0-99.802,23.529-120.635,46.139c-9.068,9.841-14.119,22.446-14.295,35.541
		c-0.183,13.594-0.359,34.023-0.216,47.827C163.795,129.752,222.475,127.106,246.907,127.106z"></path>
	<path class="hatF" d="M394.572,154.847c-51.413-33.363-138.57-29.304-138.57-29.304s-87.159-4.059-138.572,29.304
		c-19.582,19.434-9.309,40.324,12.41,36.345c21.72-3.979,53.55-15.788,126.162-15.788s104.44,11.809,126.159,15.788
		C403.884,195.171,414.154,174.281,394.572,154.847z"></path>
	<path class="hatB" d="M394.572,154.847l2.861-4.41c-21.667-14.032-48.722-21.472-73.378-25.569
		c-24.656-4.077-46.937-4.737-58.959-4.739c-5.852,0-9.27,0.161-9.341,0.163l0.247,5.251l0.247-5.251
		c-0.071-0.002-3.49-0.163-9.342-0.163c-12.023,0.002-34.305,0.661-58.961,4.738c-24.656,4.096-51.711,11.537-73.378,25.57
		l-0.455,0.294l-0.386,0.384c-3.992,3.962-6.964,8.08-8.958,12.229c-1.992,4.145-3.004,8.331-3.004,12.348
		c-0.025,5.912,2.288,11.462,6.456,15.305c4.154,3.867,9.954,5.951,16.413,5.939c1.984,0,4.036-0.191,6.144-0.574l0.008-0.001
		c11.307-2.082,24.465-5.978,43.954-9.377c19.471-3.4,45.236-6.322,81.261-6.323c36.025,0.001,61.789,2.924,81.26,6.323
		c19.488,3.4,32.645,7.295,43.952,9.377c2.114,0.387,4.169,0.577,6.151,0.577c6.459,0.012,12.26-2.073,16.413-5.94
		c4.168-3.845,6.48-9.395,6.455-15.307c-0.001-4.016-1.012-8.201-3.004-12.346c-1.993-4.148-4.965-8.266-8.957-12.229l-0.39-0.388
		l-0.451-0.291L394.572,154.847l-3.703,3.73c3.257,3.231,5.488,6.407,6.886,9.319c1.4,2.914,1.967,5.555,1.966,7.794
		c-0.025,3.318-1.147,5.763-3.1,7.607c-1.967,1.82-4.972,3.116-9.257,3.128c-1.314,0-2.735-0.124-4.257-0.403
		c-10.412-1.896-24.029-5.895-44.037-9.394c-20.027-3.499-46.482-6.482-83.068-6.48c-36.587-0.001-63.043,2.981-83.07,6.48
		c-20.009,3.499-33.627,7.498-44.039,9.394l0.008-0.001c-1.532,0.278-2.955,0.403-4.266,0.403c-4.285-0.012-7.291-1.308-9.258-3.127
		c-1.952-1.843-3.074-4.288-3.099-7.604c-0.001-2.242,0.567-4.881,1.967-7.796c1.398-2.911,3.63-6.087,6.888-9.319l-3.702-3.73
		l2.861,4.409c19.682-12.804,45.538-20.093,69.371-24.018c23.831-3.946,45.614-4.598,57.245-4.596c2.83,0,5.06,0.039,6.573,0.076
		c0.756,0.019,1.334,0.039,1.718,0.053l0.429,0.016l0.128,0.006l0.25,0.012l0.244-0.012l0.128-0.006
		c0.653-0.027,3.766-0.145,8.719-0.145c11.63-0.002,33.412,0.652,57.243,4.597c23.832,3.925,49.688,11.215,69.371,24.016
		L394.572,154.847l-3.703,3.73L394.572,154.847z"></path>
</g>


<g>
	<path class="baseF" d="M300.011,342.016l-2.278,24.241c-2.859,11.508,2.02,23.548,12.084,29.822l24.923,15.541l17.831,5.524
		c6.295,1.95,11.114,7.052,12.703,13.451l32.522,180.145c5.25,36.989,38.344,42.621,58.786,36.989
		c21.164-5.834,42.586-32.121,24.544-69.921l-76.612-189.49c-6.319-14.773-17.414-26.998-31.505-34.711l-57.258-31.345
		c-3.633-2.44-7.913-3.745-12.286-3.745h-29.081c-4.983,0-9.778,1.887-13.43,5.283l-14.03,13.062
		c-4.519,4.202-4.219,11.44,0.623,15.26c3.656,2.883,8.817,2.878,12.469-0.012l12.75-10.095H300.011"></path>
	<path class="kirakiraB" d="M486.011,575.833l0.007-0.002l-76.655-189.589l0.002,0.002c-6.785-15.859-18.696-28.983-33.823-37.264
		l-57.258-31.345l-0.007,0.012c-4.416-2.854-9.548-4.405-14.812-4.406h-29.081c-6.319,0-12.398,2.393-17.025,6.695L243.328,333
		c-3.253,3.018-4.901,7.16-4.891,11.22c-0.012,4.473,1.983,9.013,5.848,12.049c2.773,2.19,6.141,3.292,9.488,3.29
		c3.356,0.003,6.731-1.109,9.511-3.303l0.009-0.007l11.309-8.955l19.615,0l-1.725,18.349c-0.546,2.397-0.848,4.815-0.848,7.215
		c-0.002,11.086,5.665,21.643,15.384,27.701l25.498,15.901l18.485,5.727c4.514,1.398,7.969,5.052,9.124,9.635l32.47,179.859
		l0.002-0.001c2.227,15.668,9.431,26.864,18.809,33.698c9.403,6.889,20.613,9.497,30.952,9.503
		c5.524-0.002,10.833-0.746,15.616-2.061c8.902-2.465,17.599-7.965,24.197-16.082c6.591-8.104,10.999-18.928,10.988-31.603
		C493.169,596.15,490.952,586.29,486.011,575.833z M473.983,630.088c-5.161,6.379-12.117,10.723-18.804,12.555
		c-3.83,1.055-8.248,1.684-12.813,1.682c-8.59,0.006-17.592-2.215-24.705-7.455c-7.099-5.267-12.687-13.44-14.639-26.87
		l-0.009-0.057l-32.576-180.447l-0.04-0.172c-2.034-8.191-8.203-14.722-16.263-17.22l-17.182-5.323l-24.342-15.18
		c-6.581-4.098-10.411-11.248-10.413-18.745c0-1.761,0.216-3.546,0.656-5.326l0.098-0.402l2.313-24.619
		c0.007-0.086-0.03-0.162-0.026-0.248c0.005-0.086,0.049-0.159,0.049-0.246c0-0.281-0.117-0.522-0.159-0.791
		c-0.054-0.35-0.084-0.696-0.206-1.021c-0.12-0.326-0.307-0.599-0.487-0.891c-0.173-0.285-0.326-0.57-0.551-0.817
		c-0.232-0.256-0.511-0.441-0.79-0.648c-0.265-0.197-0.509-0.402-0.811-0.548c-0.323-0.156-0.675-0.222-1.029-0.31
		c-0.255-0.064-0.478-0.201-0.75-0.226c-0.084-0.008-0.159,0.03-0.244,0.026c-0.087-0.004-0.159-0.05-0.248-0.05h-29.084
		l-14.182,11.23c-0.891,0.696-1.924,1.032-2.974,1.035c-1.052-0.002-2.086-0.339-2.953-1.024c-1.233-0.977-1.816-2.326-1.828-3.761
		c0.009-1.292,0.485-2.518,1.526-3.492l14.034-13.065c2.674-2.488,6.185-3.868,9.834-3.868h29.081c3.321,0,6.579,0.993,9.342,2.849
		l0.195,0.132l57.471,31.462c13.052,7.144,23.332,18.467,29.184,32.15l76.627,189.53l0.077,0.162
		c4.458,9.356,6.248,17.723,6.251,25.053C482.601,615.368,479.149,623.696,473.983,630.088z"></path>
</g>

</g></svg>