<?xml version="1.0" encoding="utf-8"?>
<!-- Generator: Adobe Illustrator 27.5.0, SVG Export Plug-In . SVG Version: 6.00 Build 0)  -->
<svg version="1.1" id="レイヤー_1" xmlns="http://www.w3.org/2000/svg" xmlns:xlink="http://www.w3.org/1999/xlink" x="0px"
	 y="0px" viewBox="0 0 700 673" style="enable-background:new 0 0 700 673;" xml:space="preserve">
<style type="text/css">
	.st0{fill:none;}
	.st1{fill-rule:evenodd;clip-rule:evenodd;fill:#FF0211;}
	.st2{fill:#4DC9FF;}
	.st3{fill:#FFFFFF;}
</style>
<path class="st0" d="M41.4,0h2499.7v673H41.4V0z"/>
<path class="st1" d="M627.1,194.3v288.4c-0.1,18.6-10.8,35.4-27.5,43.5l-244.5,118c-13.4,6.5-28.9,6.5-42.3,0l-144.5-69.9
	l-99.6-48.8c-16.8-8-27.5-24.9-27.5-43.5V193.7c0.1-18.5,10.8-35.2,27.5-43.1L313.2,28.4c13.7-6.8,29.7-6.8,43.4,0l243.9,122.7
	C616.8,159.3,627.1,176.1,627.1,194.3L627.1,194.3z"/>
<circle class="st2" cx="536.2" cy="201.2" r="131.3"/>
<path class="st3" d="M122,441.6l-25.7-12.6v-76c0-22.3,12.5-44.5,38.3-41.9c21.5,3.7,39.7,17.8,48.6,37.8
	c7.8-7.3,18.7-10.4,29.3-8.2c13.7,1.8,63,20.3,63,87.8v89.4l-28.2-13.7V420c1.8-22.4-13.3-42.6-35.3-47.2
	c-8.4-0.8-15.7,5.9-15.8,20.3c-0.1,14.4,0,85.3,0,85.3l-25.8-12.6v-79.5c0-35-22.7-45.9-32.6-47c-5.6,0-15.9,2.9-15.9,20.9V441.6z"
	/>
</svg>
